<svg width="560" height="235" viewBox="0 0 560 235" fill="none" xmlns="http://www.w3.org/2000/svg">
<path d="M148.076 74.627L155.216 106.897L161.936 74.627H176.146L182.516 107.457L190.006 74.627H204.496L190.356 130.417H175.866L168.936 95.207L162.146 130.417H147.726L133.586 74.627H148.076Z" fill="#0A122D"/>
<path d="M197.846 130.417L216.746 74.627H235.086L253.986 130.417H239.426L234.106 114.807L216.046 119.777L212.406 130.417H197.846ZM220.526 106.547L230.326 103.817L225.916 90.727L220.526 106.547Z" fill="#0A122D"/>
<path d="M255.386 74.627H269.946V118.377H296.616V130.417H255.386V74.627Z" fill="#0A122D"/>
<path d="M329.516 130.417L312.576 106.757V130.417H298.016V74.627H312.576V95.627L329.516 74.627H345.546L323.986 101.367L345.546 130.417H329.516Z" fill="#0A122D"/>
<path d="M389.096 130.137V100.107L357.806 108.647V130.137H350.806V75.7471H357.806V103.117L389.096 94.5771V75.7471H396.096V130.137H389.096Z" fill="#0A122D"/>
<path d="M400.296 102.837C400.296 98.4471 401.026 94.4871 402.506 90.9371C403.976 87.3871 405.966 84.3971 408.486 81.9371C411.006 79.4871 413.926 77.5971 417.236 76.2671C420.546 74.9371 424.076 74.2671 427.806 74.2671C431.586 74.2671 435.146 74.9371 438.476 76.2671C441.816 77.5971 444.726 79.4871 447.226 81.9371C449.726 84.3871 451.706 87.3871 453.176 90.9371C454.646 94.4871 455.386 98.4471 455.386 102.837C455.386 107.267 454.646 111.257 453.176 114.807C451.706 118.357 449.726 121.367 447.226 123.837C444.726 126.307 441.816 128.217 438.476 129.547C435.136 130.877 431.586 131.547 427.806 131.547C424.076 131.547 420.546 130.877 417.236 129.547C413.926 128.217 411.006 126.317 408.486 123.837C405.966 121.367 403.976 118.357 402.506 114.807C401.026 111.267 400.296 107.277 400.296 102.837ZM407.296 102.837C407.296 106.567 407.866 109.857 409.006 112.707C410.146 115.557 411.676 117.957 413.586 119.917C415.496 121.877 417.676 123.357 420.126 124.367C422.576 125.367 425.126 125.867 427.796 125.867C430.466 125.867 433.026 125.367 435.496 124.367C437.966 123.367 440.176 121.877 442.116 119.917C444.056 117.957 445.596 115.557 446.736 112.707C447.876 109.857 448.456 106.567 448.456 102.837C448.456 99.1971 447.846 95.9571 446.636 93.1071C445.426 90.2571 443.836 87.8671 441.876 85.9271C439.916 83.9871 437.696 82.5171 435.226 81.5171C432.756 80.5171 430.276 80.0171 427.806 80.0171C425.336 80.0171 422.876 80.5171 420.426 81.5171C417.976 82.5171 415.786 83.9871 413.846 85.9271C411.906 87.8671 410.336 90.2571 409.116 93.1071C407.896 95.9571 407.296 99.1971 407.296 102.837Z" fill="#0A122D"/>
<path d="M457.476 75.7471H464.476V124.397H495.346V130.137H457.476V75.7471Z" fill="#0A122D"/>
<path d="M503.816 73.7871V81.6271H496.816V73.7871H503.816ZM503.816 88.6271V130.137H496.816V88.6271H503.816Z" fill="#0A122D"/>
<path d="M508.016 102.907C508.016 98.7571 508.726 94.9271 510.146 91.4271C511.566 87.9271 513.516 84.9071 515.986 82.3671C518.456 79.8271 521.396 77.8371 524.806 76.4171C528.216 74.9971 531.876 74.2871 535.796 74.2871C540.606 74.2871 545.046 75.4171 549.126 77.6771C553.206 79.9371 556.606 83.0971 559.306 87.1671L554.266 90.8071C552.306 87.6371 549.726 85.0371 546.536 83.0071C543.336 80.9771 539.686 79.9671 535.576 79.9671C532.636 79.9671 529.906 80.5771 527.386 81.7871C524.866 82.9971 522.696 84.6471 520.876 86.7171C519.056 88.7971 517.626 91.2171 516.576 93.9971C515.526 96.7771 514.996 99.7471 514.996 102.917C514.996 106.137 515.546 109.147 516.636 111.947C517.736 114.747 519.266 117.177 521.216 119.227C523.176 121.277 525.526 122.887 528.256 124.057C530.986 125.227 533.986 125.807 537.256 125.807C541.036 125.807 544.386 124.807 547.296 122.797C550.216 120.787 552.676 118.127 554.676 114.817L559.576 118.667C556.966 122.637 553.626 125.767 549.566 128.087C545.506 130.397 540.906 131.547 535.776 131.547C532.086 131.547 528.566 130.877 525.206 129.547C521.846 128.217 518.896 126.307 516.356 123.807C513.816 121.307 511.786 118.297 510.266 114.777C508.746 111.257 508.016 107.297 508.016 102.907Z" fill="#0A122D"/>
<mask id="mask0_306_373" style="mask-type:luminance" maskUnits="userSpaceOnUse" x="0" y="0" width="174" height="235">
<path d="M108.726 148.677C106.696 143.427 104.386 133.307 104.786 114.827C105.486 82.867 94.3563 16.857 41.3263 1.50702C-11.7037 -13.853 -9.14369 92.197 23.3263 138.027C50.6463 176.577 48.0563 169.647 51.4663 177.937C52.9463 181.547 57.2363 183.077 60.6663 181.227L105.726 156.887C108.666 155.297 109.926 151.787 108.726 148.677ZM118.386 157.577L95.6163 216.447C113.446 227.757 166.326 255.167 173.226 207.207C180.126 159.247 118.386 157.577 118.386 157.577Z" fill="white"/>
</mask>
<g mask="url(#mask0_306_373)">
<path d="M214.087 -23.2329H-27.5835V240.297H214.087V-23.2329Z" fill="#E29D70"/>
<path d="M70.4365 115.407C70.4365 115.407 110.137 47.4771 114.547 38.2071C118.957 28.9371 129.107 13.0671 141.457 29.3871C153.807 45.7071 216.447 113.637 209.827 149.817H47.9365L70.4365 115.407Z" fill="#9DB75A" stroke="#323333" stroke-width="4" stroke-miterlimit="10"/>
<path d="M-1.40356 169.277C-1.40356 169.277 38.2964 101.347 42.7064 92.0772C47.1164 82.8172 57.2664 66.9372 69.6164 83.2572C81.9664 99.5772 144.606 167.507 137.986 203.687H-23.8936L-1.40356 169.277Z" fill="#9DB75A" stroke="#323333" stroke-width="4" stroke-miterlimit="10"/>
<path d="M42.7163 92.0771C40.7263 92.0771 38.7263 92.1872 36.7363 92.3972" stroke="#323333" stroke-width="4" stroke-linecap="round" stroke-linejoin="round"/>
<path d="M26.9963 94.147C12.0663 97.857 -0.583714 105.587 -2.16371 108.987C-13.1437 132.607 93.9363 140.247 104.796 148.187C119.676 159.057 115.776 170.447 106.706 186.777C99.4063 199.917 120.156 198.157 133.676 189.617" stroke="#323333" stroke-width="4" stroke-linecap="round" stroke-linejoin="round" stroke-dasharray="11.87 11.87"/>
<path d="M137.656 186.687C139.246 185.337 140.636 183.867 141.726 182.307C141.726 182.307 140.336 180.297 138.316 177.367" stroke="#323333" stroke-width="4" stroke-linecap="round" stroke-linejoin="round"/>
<path d="M133.016 169.627C129.386 164.307 125.676 158.797 124.166 156.347" stroke="#323333" stroke-width="4" stroke-linecap="round" stroke-linejoin="round" stroke-dasharray="11.26 11.26"/>
<path d="M125.506 157.467C126.386 158.607 127.576 160.177 129.126 162.257" stroke="#323333" stroke-width="4" stroke-linecap="round" stroke-linejoin="round"/>
<path d="M157.286 44.6973C156.696 46.4173 155.856 48.2373 154.776 50.1373" stroke="#323333" stroke-width="4" stroke-linecap="round" stroke-linejoin="round"/>
<path d="M148.246 59.1772C136.386 72.8972 115.086 87.5172 90.2864 92.8472" stroke="#323333" stroke-width="4" stroke-linecap="round" stroke-linejoin="round" stroke-dasharray="13.4 13.4"/>
<path d="M84.7764 93.8672C82.8064 94.1672 80.8264 94.4172 78.8164 94.5972" stroke="#323333" stroke-width="4" stroke-linecap="round" stroke-linejoin="round"/>
<path d="M26.5063 59.8572C26.5063 59.8572 28.5263 59.0372 32.0863 57.6572" stroke="#323333" stroke-width="4" stroke-linecap="round" stroke-linejoin="round"/>
<path d="M42.6562 53.6071C58.8662 47.5271 84.7562 38.3471 108.326 32.2471" stroke="#323333" stroke-width="4" stroke-linecap="round" stroke-linejoin="round" stroke-dasharray="13.59 13.59"/>
<path d="M113.836 30.8771C115.806 30.3971 117.756 29.9571 119.676 29.5371" stroke="#323333" stroke-width="4" stroke-linecap="round" stroke-linejoin="round"/>
<path d="M57.2966 6.65707C57.2966 25.7971 41.7766 72.6871 22.6366 72.6871C3.49657 72.6871 -12.0234 25.8071 -12.0234 6.65707C-12.0234 -12.4929 3.49657 -28.0029 22.6366 -28.0029C41.7766 -28.0029 57.2966 -12.4929 57.2966 6.65707Z" fill="#83C6D7" stroke="#323333" stroke-width="4" stroke-miterlimit="10"/>
<path d="M22.6264 23.4373C31.5292 23.4373 38.7464 16.2201 38.7464 7.31727C38.7464 -1.58556 31.5292 -8.80273 22.6264 -8.80273C13.7235 -8.80273 6.50635 -1.58556 6.50635 7.31727C6.50635 16.2201 13.7235 23.4373 22.6264 23.4373Z" fill="white" stroke="#323333" stroke-width="4" stroke-miterlimit="10"/>
<path d="M164.85 170.83L122.144 138.724L78.3322 197.001L121.039 229.107L164.85 170.83Z" fill="#E29D70"/>
<path d="M113.606 165.727C113.606 165.727 98.4365 212.727 133.206 209.777C157.456 207.717 161.066 175.777 169.786 191.887C178.506 207.997 187.226 176.787 187.226 176.787" stroke="#323333" stroke-width="4" stroke-miterlimit="10" stroke-linecap="round" stroke-linejoin="round" stroke-dasharray="12 12"/>
</g>
<path d="M186.496 163.217C184.346 173.507 170.716 196.977 160.426 194.817C150.136 192.667 147.066 165.707 149.216 155.417C151.366 145.127 161.466 138.527 171.756 140.677C182.056 142.837 188.656 152.927 186.496 163.217Z" fill="#83C6D7" stroke="#323333" stroke-width="4" stroke-miterlimit="10"/>
<path d="M167.786 168.527C172.674 168.527 176.636 164.565 176.636 159.677C176.636 154.789 172.674 150.827 167.786 150.827C162.899 150.827 158.936 154.789 158.936 159.677C158.936 164.565 162.899 168.527 167.786 168.527Z" fill="white" stroke="#323333" stroke-width="4" stroke-miterlimit="10"/>
</svg>
